<?xml version="1.0" encoding="utf-8"?>
<!-- Generator: Adobe Illustrator 24.0.1, SVG Export Plug-In . SVG Version: 6.00 Build 0)  -->
<svg version="1.1" id="Capa_1" xmlns="http://www.w3.org/2000/svg" xmlns:xlink="http://www.w3.org/1999/xlink" x="0px" y="0px"
	 viewBox="0 0 36 44" style="enable-background:new 0 0 36 44;" xml:space="preserve">
<g>
	<path d="M17.4,34.8h-0.8c-4.8,0-8.8-4.3-8.8-9.6v-9.9c0-5.3,3.9-9.6,8.8-9.6h0.8c4.8,0,8.8,4.3,8.8,9.6v9.9
		C26.1,30.5,22.2,34.8,17.4,34.8z M16.5,7.7c-3.7,0-6.8,3.4-6.8,7.6v9.9c0,4.2,3,7.6,6.8,7.6h0.8c3.7,0,6.8-3.4,6.8-7.6v-9.9
		c0-4.2-3-7.6-6.8-7.6H16.5z"/>
</g>
<path d="M15.6,25.3c0-0.9,0.6-1.7,1.3-1.7c0.7,0,1.3,0.8,1.3,1.7v2.8c0,0.9-0.6,1.7-1.3,1.7s-1.3-0.8-1.3-1.7V25.3L15.6,25.3z"/>
</svg>
